<svg xmlns="http://www.w3.org/2000/svg" width="1080" height="1080" xmlns:v="https://vecta.io/nano"><path vector-effect="non-scaling-stroke" d="M-540-540H540V540H-540z" fill="#fff" visibility="hidden" transform="translate(540 540)"/><path vector-effect="non-scaling-stroke" transform="translate(284.01 284)" d="M512 240c0 114.9-114.6 208-256 208-37.1 0-72.3-6.4-104.1-17.9-11.9 8.7-31.3 20.6-54.3 30.6C73.6 471.1 44.7 480 16 480c-6.5 0-12.3-3.9-14.8-9.9s-1.1-12.8 3.4-17.4l.3-.3c.3-.3.7-.7 1.3-1.4a118.5 118.5 0 0 0 4.9-5.7c4.1-5 9.6-12.4 15.2-21.6 10-16.6 19.5-38.4 21.4-62.9C17.7 326.8 0 285.1 0 240 0 125.1 114.6 32 256 32s256 93.1 256 208z" fill="#ff7829"/></svg>