<svg xmlns="http://www.w3.org/2000/svg" viewBox="0 0 24 24" fill="currentColor" class="w-6 h-6">
  <path fill-rule="evenodd" d="M6 2.25A.75.75 0 016.75 3v.75h10.5V3a.75.75 0 011.5 0v.75h1.25A2.25 2.25 0 0122 6v14a2.25 2.25 0 01-2.25 2.25H4.25A2.25 2.25 0 012 20V6a2.25 2.25 0 012.25-2.25H5.5V3a.75.75 0 011.5 0v.75zm0 3.75A.75.75 0 006.75 6h10.5a.75.75 0 010 1.5H6.75A.75.75 0 006 6zm-.75 6a.75.75 0 00-.75.75v7.5a.75.75 0 001.5 0v-7.5a.75.75 0 00-.75-.75zm12 .75a.75.75 0 011.5 0v7.5a.75.75 0 01-1.5 0v-7.5z" clip-rule="evenodd" />
</svg>
