<svg xmlns="http://www.w3.org/2000/svg" width="20" height="24" viewBox="0 0 20 24">
  <path id="Vector" d="M12.525,3.348a3.452,3.452,0,0,0-5.051,0,3.884,3.884,0,0,0,0,5.3,3.452,3.452,0,0,0,5.051,0,3.884,3.884,0,0,0,0-5.3ZM5.959,1.757a5.524,5.524,0,0,1,8.081,0,6.214,6.214,0,0,1,0,8.485,5.524,5.524,0,0,1-8.081,0,6.214,6.214,0,0,1,0-8.485ZM17.8,21.75A5.92,5.92,0,0,0,12.04,16.5H7.96A5.92,5.92,0,0,0,2.2,21.75ZM7.96,14.25h4.08A8.164,8.164,0,0,1,20,22.608,1.36,1.36,0,0,1,18.674,24H1.326A1.36,1.36,0,0,1,0,22.608,8.164,8.164,0,0,1,7.96,14.25Z" fill="#fff" style="isolation: isolate"/>
</svg>
