<svg xmlns="http://www.w3.org/2000/svg" width="288.549" height="257.487"><g transform="translate(-.001)"><path data-name="Trazado 74" d="M58.977 239.861a132.539 132.539 0 0 1-1.252 17.031c-.027.2-.057.4-.085.595l-53.362-.3c-.157-.2-.311-.4-.46-.6a24.94 24.94 0 0 1-1.394-2.063c-2.06-3.42-3-7.423-2.058-10.186l.017-.043a4.847 4.847 0 0 1 .946-1.644c2.155-2.426 6.512-2.021 10.466-.063-3.547-3.882-6.37-8.781-6.585-13.153-.21-4.265 2.02-7.312 4.439-9.9.079-.086.159-.169.238-.252l.118-.126c1.887-1.973 4.087-3.918 7.272-3.683 3.493.258 7.365 3.184 10.08 6.593s4.519 7.276 6.348 11.053a44.607 44.607 0 0 0 6.751 10.872c-3.98-5.034-7.189-10.762-8.374-16.332s-.142-10.921 3.4-13.544a8.3 8.3 0 0 1 3.634-1.466c.153-.026.308-.046.466-.064a14.562 14.562 0 0 1 10.54 3.477 24.264 24.264 0 0 1 7.487 11.626 39.668 39.668 0 0 1 1.368 12.172Z" fill="#f2f2f2"/><path data-name="Trazado 75" d="m24.065 257.295-1.02-.006q-.486-.3-.977-.6c-.2-.128-.407-.251-.612-.376q-5.077-3.1-10.217-5.948T.916 244.927a.428.428 0 0 1-.246-.489.122.122 0 0 1 .017-.036c.048-.091.156-.128.313-.051.424.213.851.425 1.275.643q5.2 2.632 10.359 5.526t10.248 6.042l.214.133Z" fill="#fff"/><path data-name="Trazado 76" d="M37.221 257.374h-.631l-.424-.6-10.029-14.066q-8.21-11.514-16.415-23.029a.405.405 0 0 1-.071-.139c-.047-.17.078-.27.238-.252a.479.479 0 0 1 .333.212l9.2 12.91 16.332 22.911 1.047 1.453c.138.2.281.4.42.6Z" fill="#fff"/><path data-name="Trazado 77" d="M51.279 253.709c-.032 1.063-.1 2.11-.195 3.147l-.053.595h-.662c.02-.2.04-.4.058-.595.14-1.5.239-3.013.253-4.568a63.728 63.728 0 0 0-1.255-12.855 79.981 79.981 0 0 0-3.886-13.346 91.651 91.651 0 0 0-6.358-13.2.353.353 0 0 1-.058-.235c.027-.189.279-.245.466-.064a.543.543 0 0 1 .095.12q.458.788.9 1.58a91.594 91.594 0 0 1 6.085 13.251 79.61 79.61 0 0 1 3.623 13.366 62.875 62.875 0 0 1 .987 12.804Z" fill="#fff"/><path data-name="Trazado 78" d="M194.648 8.416a8.416 8.416 0 1 1 8.416 8.416 8.416 8.416 0 0 1-8.416-8.416Zm15.946 0a7.53 7.53 0 1 0-7.53 7.53 7.53 7.53 0 0 0 7.53-7.53Z" fill="#ccc"/><circle data-name="Elipse 22" cx="4.872" cy="4.872" r="4.872" transform="translate(198.192 3.543)" fill="#ff7829"/><circle data-name="Elipse 23" cx="7.973" cy="7.973" r="7.973" transform="translate(166.743 .443)" fill="#ccc"/><circle data-name="Elipse 24" cx="7.973" cy="7.973" r="7.973" transform="translate(138.396 .443)" fill="#ccc"/><path data-name="Trazado 79" d="M281.02 153.255H77.713a7.538 7.538 0 0 1-7.53-7.53V38.978a7.538 7.538 0 0 1 7.53-7.53H281.02a7.538 7.538 0 0 1 7.53 7.53v106.747a7.538 7.538 0 0 1-7.53 7.53ZM77.713 32.334a6.652 6.652 0 0 0-6.644 6.644v106.747a6.652 6.652 0 0 0 6.644 6.644H281.02a6.651 6.651 0 0 0 6.644-6.644V38.978a6.651 6.651 0 0 0-6.644-6.644Z" fill="#3f3d56"/><path data-name="Trazado 80" d="M146.811 124.907H94.545a7.538 7.538 0 0 1-7.53-7.53V65.111a7.538 7.538 0 0 1 7.53-7.53h52.266a7.538 7.538 0 0 1 7.53 7.53v52.266a7.538 7.538 0 0 1-7.53 7.53Zm-52.266-66.44a6.652 6.652 0 0 0-6.644 6.644v52.266a6.652 6.652 0 0 0 6.644 6.644h52.266a6.652 6.652 0 0 0 6.644-6.644V65.111a6.652 6.652 0 0 0-6.644-6.644Z" fill="#ccc"/><path data-name="Trazado 81" d="M275.697 85.929H175.154a3.543 3.543 0 1 1 0-7.087h100.543a3.543 3.543 0 1 1 0 7.087Z" fill="#ccc"/><path data-name="Trazado 82" d="M224.763 70.87h-49.609a3.543 3.543 0 1 1 0-7.087h49.609a3.543 3.543 0 0 1 0 7.087Z" fill="#ccc"/><path data-name="Trazado 83" d="M275.697 115.606H175.154a3.543 3.543 0 1 1 0-7.087h100.543a3.543 3.543 0 1 1 0 7.087Z" fill="#ccc"/><path data-name="Trazado 84" d="M224.763 100.546h-49.609a3.543 3.543 0 1 1 0-7.087h49.609a3.543 3.543 0 0 1 0 7.087Z" fill="#ccc"/><path data-name="Trazado 85" d="M151.933 122.716a.442.442 0 0 1-.315-.132L89.776 59.909a.443.443 0 0 1 .631-.622l61.841 62.677a.443.443 0 0 1-.315.754Z" fill="#ccc"/><path data-name="Trazado 86" d="M89.419 122.716a.443.443 0 0 1-.315-.754l61.839-62.675a.443.443 0 1 1 .631.622l-61.836 62.675a.441.441 0 0 1-.315.132Z" fill="#ccc"/><path data-name="Trazado 87" d="M272.604 140.189h-28.348a6.865 6.865 0 0 1 0-13.731h28.348a6.865 6.865 0 0 1 0 13.731Z" fill="#df3d24"/><path data-name="Trazado 88" d="M3.702 257.444h133.326a.443.443 0 0 0 0-.886H3.702a.443.443 0 1 0 0 .886Z" fill="#3f3d56"/><path data-name="Trazado 89" d="M86.941 252.372h5.43l2.583-20.945H86.94Z" fill="#a0616a"/><path data-name="Trazado 90" d="M102.843 257.415H85.776v-6.593h10.473a6.594 6.594 0 0 1 6.594 6.593Z" fill="#2f2e41"/><path data-name="Trazado 91" d="m47.54 246.221 4.939 2.256 11.053-17.98-7.29-3.33Z" fill="#a0616a"/><path data-name="Trazado 92" d="m59.909 257.415-15.524-7.09 2.74-5.999 9.526 4.351a6.594 6.594 0 0 1 3.258 8.738Z" fill="#2f2e41"/><path data-name="Trazado 93" d="M63.353 181.749a4.454 4.454 0 0 1-.355-6.821l-6.384-14.484 8.109 1.374 4.818 13.543a4.478 4.478 0 0 1-6.19 6.387Z" fill="#a0616a"/><path data-name="Trazado 94" d="m85.307 245.083-5.21-45.5a1.55 1.55 0 0 0-3.058-.138l-2.583 12.444a1.984 1.984 0 0 1-.179.506l-15.119 29.4a1.994 1.994 0 0 1-2.462.958l-5.257-1.937a1.993 1.993 0 0 1-1.171-2.587l12.307-31.915a1.546 1.546 0 0 0 .1-.529l.629-33.324a1.994 1.994 0 0 1 1.8-1.946l32.66-3.186a1.993 1.993 0 0 1 2.182 2.128l-5.487 75.546a2 2 0 0 1-1.988 1.849h-5.187a1.993 1.993 0 0 1-1.977-1.769Z" fill="#2f2e41"/><circle data-name="Elipse 25" cx="10.879" cy="10.879" r="10.879" transform="translate(73.825 88.626)" fill="#a0616a"/><path data-name="Trazado 95" d="M94.132 116.327q-.447-.213-.887-.41a22.028 22.028 0 0 0-22.156 2.392 18.7 18.7 0 0 0-7.662 17.826c1.949 14.782-.282 34.834-.514 36.831 17.884 8.224 33.574-2.116 34.966-3.076Z" fill="#ff7829"/><path data-name="Trazado 96" d="M62.425 172.777a1.988 1.988 0 0 1-1.5-1.148l-9.129-20.227a5.072 5.072 0 0 1 .305-4.753l11.21-18.19a3.68 3.68 0 0 1 6.563 3.327l-8.293 17.415 5.45 18.447a2 2 0 0 1-.442 1.911l-2.38 2.6a1.987 1.987 0 0 1-1.467.647 2.02 2.02 0 0 1-.317-.029Z" fill="#ff7829"/><path data-name="Trazado 97" d="m87.838 168.55-1.688-33.748.438-.057 7.587 35.7h-4.346a1.992 1.992 0 0 1-1.991-1.895Z" opacity=".2"/><path data-name="Trazado 98" d="M93.85 179.318a4.454 4.454 0 0 1 1.069-6.746l-3.237-15.494 7.648 3.028 1.9 14.249a4.478 4.478 0 0 1-7.381 4.962Z" fill="#a0616a"/><path data-name="Trazado 99" d="m92.321 168.789-6.391-42.607-.006-.04 1.235-5.683a5.992 5.992 0 0 1 11.842 1.026l1.918 46.411a2 2 0 0 1-1.771 2.063l-4.635.515a2.079 2.079 0 0 1-.225.013 1.987 1.987 0 0 1-1.966-1.7Z" fill="#ff7829"/><path data-name="Trazado 100" d="M80.233 109.385a7.836 7.836 0 0 1-7.034-4.522 15.957 15.957 0 0 1-1.665-5.051c-.26-3.274 1.59-8.42 4.04-11.236 2.688-3.09 6.942-3.521 11.057-3.938 1.124-.114 2.286-.232 3.387-.4a6.368 6.368 0 0 1 3.118.042 2.261 2.261 0 0 1 1.3 1.228.782.782 0 0 0 .438.439.663.663 0 0 0 .532-.025 1.19 1.19 0 0 1 1.078 0 1.047 1.047 0 0 1 .563.766 1.1 1.1 0 0 0 .1.322 1.27 1.27 0 0 0 .83.628 1.122 1.122 0 0 1 .872 1.2 25.141 25.141 0 0 0-.122 1.745c-.1 2.195-.209 4.464-2.415 4.427a6.351 6.351 0 0 1-1.661-.293 2.464 2.464 0 0 0-2.281.132c-1.307.815-1.521 2.519-1.709 4.022l-.033.263c-.22 1.719-1.129 3.788-2.965 3.961a4.271 4.271 0 0 1-1.707-.3 3.058 3.058 0 0 0-1.779-.213 2.451 2.451 0 0 0-1.453 2.534 9.882 9.882 0 0 0 .163 1.27 6.77 6.77 0 0 1 .141 2.026c-.052.413-.526.685-1.492.856a7.477 7.477 0 0 1-1.3.115Z" fill="#2f2e41"/></g></svg>