<svg width="16" height="17" viewBox="0 0 16 17" fill="none" xmlns="http://www.w3.org/2000/svg">
<path d="M8 3.16659C7.38116 3.16659 6.78767 3.41242 6.35008 3.85C5.9125 4.28759 5.66667 4.88108 5.66667 5.49992C5.66667 6.11876 5.9125 6.71225 6.35008 7.14983C6.78767 7.58742 7.38116 7.83325 8 7.83325C8.61884 7.83325 9.21233 7.58742 9.64992 7.14983C10.0875 6.71225 10.3333 6.11876 10.3333 5.49992C10.3333 4.88108 10.0875 4.28759 9.64992 3.85C9.21233 3.41242 8.61884 3.16659 8 3.16659ZM4.33333 5.49992C4.33333 4.52746 4.71964 3.59483 5.40727 2.90719C6.09491 2.21956 7.02754 1.83325 8 1.83325C8.97246 1.83325 9.90509 2.21956 10.5927 2.90719C11.2804 3.59483 11.6667 4.52746 11.6667 5.49992C11.6667 6.47238 11.2804 7.40501 10.5927 8.09264C9.90509 8.78028 8.97246 9.16659 8 9.16659C7.02754 9.16659 6.09491 8.78028 5.40727 8.09264C4.71964 7.40501 4.33333 6.47238 4.33333 5.49992ZM2 13.1666C2 12.2825 2.35119 11.4347 2.97631 10.8096C3.60143 10.1844 4.44928 9.83325 5.33333 9.83325H10.6667C11.5507 9.83325 12.3986 10.1844 13.0237 10.8096C13.6488 11.4347 14 12.2825 14 13.1666V15.1666H2V13.1666ZM5.33333 11.1666C4.8029 11.1666 4.29419 11.3773 3.91912 11.7524C3.54405 12.1274 3.33333 12.6362 3.33333 13.1666V13.8333H12.6667V13.1666C12.6667 12.6362 12.456 12.1274 12.0809 11.7524C11.7058 11.3773 11.1971 11.1666 10.6667 11.1666H5.33333Z" fill="#4A5568"/>
</svg>
